<svg width="257" height="20" viewBox="0 0 257 20" fill="none" xmlns="http://www.w3.org/2000/svg">
<g clip-path="url(#clip0_377_4176)">
<path d="M23.8049 4.77308L30.2436 11.761L36.8528 4.77308L36.8906 18.8815H39.7691V0.152344H36.8717L30.2436 6.91301L23.8049 0.152344H20.9453V18.8815H23.8049V4.77308Z" fill="white"/>
<path d="M78.7041 16.0977H68.0612L78.5715 2.36802V0.152344H62.7777L62.7398 2.93615H74.3674L62.2285 18.8815H78.6852L78.7041 16.0977Z" fill="white"/>
<path d="M84.0821 0.152344H81.0332V18.8815H84.0821V0.152344Z" fill="white"/>
<path d="M100.445 13.7684L90.2374 0.152344H87.2832V18.8815H90.3511V5.30333L100.52 18.8815H103.475V0.152344H100.445V13.7684Z" fill="white"/>
<path d="M110.103 17.8006C111.618 18.6338 113.303 19.0694 115.121 19.0694C116.371 19.0694 117.678 18.8422 118.965 18.4066C120.253 17.971 121.408 17.365 122.355 16.6265L122.45 16.5507V8.48338H114.989V11.2861H119.609V14.9979C118.984 15.3955 118.284 15.7175 117.564 15.9447C115.481 16.6075 113.455 16.3614 111.769 15.3955C110.709 14.7895 109.856 13.9563 109.232 12.9147C108.607 11.8732 108.285 10.7369 108.285 9.506C108.285 8.27507 108.588 7.13882 109.213 6.09726C109.838 5.07464 110.671 4.24139 111.75 3.63539C112.811 3.0294 114.004 2.7264 115.273 2.7264C116.238 2.7264 117.185 2.91577 118.075 3.27558C118.984 3.63539 119.799 4.14671 120.499 4.79058L120.708 4.97995L122.488 2.74533L122.298 2.5749C121.389 1.77953 120.291 1.13565 119.079 0.681154C117.867 0.226655 116.579 -0.0195312 115.273 -0.0195312C113.417 -0.0195312 111.712 0.397092 110.178 1.23034C108.644 2.06359 107.432 3.21877 106.542 4.65802C105.652 6.09726 105.217 7.72588 105.217 9.46813C105.217 11.2104 105.652 12.839 106.542 14.2972C107.414 15.7554 108.626 16.9295 110.141 17.7817L110.103 17.8006Z" fill="white"/>
<path d="M9.18466 5.22758L15.0742 18.8815H18.3504L10.6997 0.152344H7.70754L0 18.8815H3.2383L9.18466 5.22758Z" fill="white"/>
<path d="M51.1878 4.77308L57.1152 18.8815H60.3914L52.7407 0.152344H49.7486L42.041 18.8815H45.2793L51.1878 4.77308Z" fill="white"/>
<path d="M141.69 14.2797L135.763 0.152344H132.486L140.137 18.8815H143.129L150.837 0.152344H147.598L141.69 14.2797Z" fill="white"/>
<path d="M247.342 4.77308L253.27 18.8815H256.546L248.895 0.152344H245.903L238.195 18.8815H241.415L247.342 4.77308Z" fill="white"/>
<path d="M156.272 0.152344H153.223V18.8815H156.272V0.152344Z" fill="white"/>
<path d="M173.486 14.0895C172.785 14.7333 171.99 15.2636 171.081 15.6423C170.191 16.0211 169.263 16.2104 168.335 16.2104C167.085 16.2104 165.93 15.9074 164.869 15.3015C163.828 14.6955 162.975 13.8811 162.369 12.8396C161.763 11.817 161.46 10.6807 161.46 9.46872C161.46 8.25672 161.763 7.10154 162.369 6.07892C162.975 5.0563 163.809 4.24199 164.869 3.63599C165.911 3.02999 167.085 2.72699 168.335 2.72699C169.282 2.72699 170.21 2.91637 171.1 3.31405C171.99 3.71174 172.804 4.26092 173.467 4.96161L173.675 5.16992L175.512 2.97318L175.342 2.80274C174.433 1.91268 173.353 1.212 172.122 0.73856C170.91 0.246187 169.622 0 168.316 0C166.498 0 164.812 0.416624 163.316 1.24987C161.801 2.08312 160.589 3.2383 159.718 4.67755C158.847 6.11679 158.393 7.74541 158.393 9.48766C158.393 11.2299 158.828 12.8775 159.699 14.3356C160.57 15.7938 161.763 16.949 163.26 17.8012C164.756 18.6344 166.422 19.07 168.221 19.07C169.509 19.07 170.816 18.8049 172.065 18.2746C173.315 17.7444 174.433 17.0248 175.398 16.0968L175.588 15.9264L173.713 13.919L173.524 14.0895H173.486Z" fill="white"/>
<path d="M191.951 0.152344H176.99V2.97402H182.937V18.8815H185.986V2.97402H191.951V0.152344Z" fill="white"/>
<path d="M207.138 1.24987C205.623 0.416624 203.937 0 202.119 0C200.301 0 198.597 0.416624 197.082 1.24987C195.567 2.08312 194.355 3.2383 193.484 4.67755C192.594 6.11679 192.158 7.74541 192.158 9.48766C192.158 11.2299 192.613 12.8585 193.484 14.3167C194.374 15.7749 195.586 16.949 197.101 17.8012C198.616 18.6344 200.301 19.07 202.119 19.07C203.937 19.07 205.623 18.6344 207.138 17.8012C208.653 16.9679 209.884 15.7938 210.755 14.3167C211.645 12.8585 212.08 11.2299 212.08 9.48766C212.08 7.74541 211.626 6.13573 210.755 4.67755C209.865 3.2383 208.653 2.08312 207.138 1.24987ZM202.138 16.2862C200.907 16.2862 199.752 15.9832 198.692 15.3772C197.631 14.7712 196.779 13.938 196.154 12.8964C195.529 11.8738 195.207 10.7186 195.207 9.48766C195.207 8.25672 195.529 7.12048 196.154 6.09786C196.779 5.07523 197.631 4.26092 198.692 3.65493C199.752 3.04893 200.907 2.74593 202.138 2.74593C203.369 2.74593 204.524 3.04893 205.566 3.65493C206.607 4.26092 207.441 5.07523 208.066 6.09786C208.672 7.12048 208.994 8.25672 208.994 9.48766C208.994 10.7186 208.691 11.8548 208.066 12.8964C207.441 13.919 206.607 14.7523 205.566 15.3583C204.524 15.9643 203.388 16.2673 202.138 16.2673V16.2862Z" fill="white"/>
<path d="M235.828 0.152344H232.779V18.8815H235.828V0.152344Z" fill="white"/>
<path d="M228.898 8.80675C229.617 7.93563 229.883 6.81832 229.693 5.45483C229.542 4.35646 229.125 3.29596 228.386 2.44377C228.197 2.21652 227.989 2.00821 227.762 1.81884C226.436 0.720467 224.561 0.152344 222.175 0.152344H214.676V18.8815H217.725V11.1361H222.156C222.402 11.1361 222.686 11.1361 223.046 11.0982L226.701 18.9004H230.242L225.849 10.5111C225.887 10.5869 226.985 10.1134 227.08 10.0756C227.837 9.75362 228.443 9.337 228.879 8.82569L228.898 8.80675ZM217.744 2.93615H222.175C223.084 2.93615 224.088 2.87933 224.959 3.23915C225.887 3.61789 226.455 4.29964 226.531 5.43589C226.569 5.9472 226.455 6.49639 226.152 6.93195C225.811 7.42432 225.205 7.78413 224.656 7.99244C223.879 8.29544 223.008 8.35225 222.175 8.35225H217.744V2.93615Z" fill="white"/>
</g>
<defs>
<clipPath id="clip0_377_4176">
<rect width="256.546" height="19.07" fill="white"/>
</clipPath>
</defs>
</svg>
